<svg width="148" height="91" viewBox="0 0 148 91" fill="none" xmlns="http://www.w3.org/2000/svg">
<path d="M49.4115 0.119995C54.9582 0.119995 59.8648 0.631996 64.1315 1.656C68.3982 2.59466 71.9395 4.00266 74.7555 5.88C77.6568 7.67199 79.8328 9.89066 81.2835 12.536C82.7342 15.1813 83.4595 18.1253 83.4595 21.368C83.4595 25.8907 82.0942 29.7307 79.3635 32.888C76.6328 36.0453 72.9208 38.4773 68.2275 40.184C63.5342 41.8907 58.1582 42.872 52.0995 43.128L55.6835 41.464V44.024L52.6115 42.104C59.3528 42.2747 65.3262 43.256 70.5315 45.048C75.7368 46.7547 79.8328 49.272 82.8195 52.6C85.8062 55.928 87.2995 60.0667 87.2995 65.016C87.2995 69.0267 86.4888 72.6107 84.8675 75.768C83.3315 78.9253 80.9848 81.656 77.8275 83.96C74.7555 86.264 70.9155 88.0133 66.3075 89.208C61.7848 90.4027 56.5368 91 50.5635 91H0.3875V85.368H1.5395C3.41683 85.368 4.95283 85.112 6.1475 84.6C7.4275 84.0027 8.0675 82.8507 8.0675 81.144V9.976C8.0675 8.26933 7.4275 7.15999 6.1475 6.64799C4.95283 6.05066 3.41683 5.752 1.5395 5.752H0.3875V0.119995H49.4115ZM33.1555 40.44H40.8355C44.1635 40.44 46.8088 39.8 48.7715 38.52C50.8195 37.24 52.3128 35.3627 53.2515 32.888C54.1902 30.328 54.6595 27.128 54.6595 23.288C54.6595 19.192 54.2328 15.9493 53.3795 13.56C52.5262 11.0853 51.2035 9.336 49.4115 8.312C47.6195 7.28799 45.3155 6.77599 42.4995 6.77599H36.9955V84.344H43.1395C46.4675 84.344 49.1982 83.7467 51.3315 82.552C53.5502 81.3573 55.2142 79.3093 56.3235 76.408C57.4328 73.5067 57.9875 69.4533 57.9875 64.248C57.9875 60.2373 57.4328 56.952 56.3235 54.392C55.2142 51.832 53.4648 49.912 51.0755 48.632C48.6862 47.352 45.5715 46.712 41.7315 46.712H33.1555V40.44ZM147.898 24.056V46.2C147.215 45.944 146.404 45.7733 145.466 45.688C144.612 45.5173 143.674 45.3893 142.65 45.304C141.711 45.2187 140.772 45.176 139.834 45.176C138.127 45.176 136.463 45.304 134.842 45.56C133.22 45.816 131.642 46.2427 130.106 46.84C128.655 47.4373 127.332 48.2053 126.138 49.144C124.943 49.9973 124.004 51.064 123.322 52.344L123.194 48.632C124.218 43.9387 125.54 39.7147 127.162 35.96C128.868 32.12 131.002 29.0907 133.562 26.872C136.207 24.568 139.407 23.416 143.162 23.416C144.271 23.416 145.21 23.5013 145.978 23.672C146.831 23.7573 147.471 23.8853 147.898 24.056ZM93.4975 91V85.752H93.6255C95.0762 85.752 96.3135 85.5387 97.3375 85.112C98.4468 84.6853 99.0015 83.7893 99.0015 82.424V33.528C99.0015 32.76 98.8308 32.1627 98.4895 31.736C98.2335 31.3093 97.7642 30.968 97.0815 30.712C96.4842 30.456 95.6735 30.2 94.6495 29.944L93.4975 29.688V24.184H124.729V46.712L126.266 46.2V84.6C126.266 84.856 126.607 85.0693 127.29 85.24C128.058 85.3253 128.954 85.4533 129.978 85.624C131.002 85.7093 131.983 85.752 132.922 85.752H134.586V91H93.4975Z" fill="#BF9FE3"/>
</svg>
